<svg aria-hidden="true" style="position: absolute; width: 0; height: 0; overflow: hidden;" version="1.1" xmlns="http://www.w3.org/2000/svg" xmlns:xlink="http://www.w3.org/1999/xlink">
<defs>
<symbol id="icon-menu" viewBox="0 0 43 32">
<path d="M2.963 0h36.741c1.636 0 2.963 1.327 2.963 2.963s-1.327 2.963-2.963 2.963h-36.741c-1.636 0-2.963-1.327-2.963-2.963s1.327-2.963 2.963-2.963z"></path>
<path d="M2.963 13.037h36.741c1.636 0 2.963 1.327 2.963 2.963s-1.327 2.963-2.963 2.963h-36.741c-1.636 0-2.963-1.327-2.963-2.963s1.327-2.963 2.963-2.963z"></path>
<path d="M2.963 26.074h36.741c1.636 0 2.963 1.327 2.963 2.963s-1.327 2.963-2.963 2.963h-36.741c-1.636 0-2.963-1.327-2.963-2.963s1.327-2.963 2.963-2.963z"></path>
</symbol>
</defs>
</svg>
